<svg xmlns="http://www.w3.org/2000/svg" width="1072" height="398" viewBox="0 0 1072 398">
<rect width="100%" height="100%" fill="white"/><rect width="100%" height="54" fill="#51498D"/>
<text x="16" y="35" font-family="Arial" font-size="22" fill="white">Cost Element</text>
<rect x="16" y="68" width="260" height="52" fill="#E9EEF3" stroke="#D8DFE5"/>
<text x="26" y="95" font-family="Arial" font-size="17" font-weight="bold" fill="#172536">Cost element name</text>
<rect x="276" y="68" width="260" height="52" fill="#E9EEF3" stroke="#D8DFE5"/>
<text x="286" y="95" font-family="Arial" font-size="17" font-weight="bold" fill="#172536">Cost Element Group</text>
<rect x="536" y="68" width="260" height="52" fill="#E9EEF3" stroke="#D8DFE5"/>
<text x="546" y="95" font-family="Arial" font-size="17" font-weight="bold" fill="#172536">Cost Element Sub Group</text>
<rect x="796" y="68" width="260" height="52" fill="#E9EEF3" stroke="#D8DFE5"/>
<text x="806" y="95" font-family="Arial" font-size="17" font-weight="bold" fill="#172536">Cost Element ID</text>
<rect x="16" y="120" width="260" height="52" fill="#F6F8FA" stroke="#D8DFE5"/>
<text x="26" y="147" font-family="Arial" font-size="17" font-weight="normal" fill="#172536">3rd Party Marketing Data</text>
<rect x="276" y="120" width="260" height="52" fill="#F6F8FA" stroke="#D8DFE5"/>
<text x="286" y="147" font-family="Arial" font-size="17" font-weight="normal" fill="#172536">Other</text>
<rect x="536" y="120" width="260" height="52" fill="#F6F8FA" stroke="#D8DFE5"/>
<text x="546" y="147" font-family="Arial" font-size="17" font-weight="normal" fill="#172536">Other</text>
<rect x="796" y="120" width="260" height="52" fill="#F6F8FA" stroke="#D8DFE5"/>
<text x="806" y="147" font-family="Arial" font-size="17" font-weight="normal" fill="#172536">182.0</text>
<rect x="16" y="172" width="260" height="52" fill="white" stroke="#D8DFE5"/>
<text x="26" y="199" font-family="Arial" font-size="17" font-weight="normal" fill="#172536">Advertising</text>
<rect x="276" y="172" width="260" height="52" fill="white" stroke="#D8DFE5"/>
<text x="286" y="199" font-family="Arial" font-size="17" font-weight="normal" fill="#172536">Other</text>
<rect x="536" y="172" width="260" height="52" fill="white" stroke="#D8DFE5"/>
<text x="546" y="199" font-family="Arial" font-size="17" font-weight="normal" fill="#172536">Other</text>
<rect x="796" y="172" width="260" height="52" fill="white" stroke="#D8DFE5"/>
<text x="806" y="199" font-family="Arial" font-size="17" font-weight="normal" fill="#172536">7.0</text>
<rect x="16" y="224" width="260" height="52" fill="#F6F8FA" stroke="#D8DFE5"/>
<text x="26" y="251" font-family="Arial" font-size="17" font-weight="normal" fill="#172536">Audit Fees</text>
<rect x="276" y="224" width="260" height="52" fill="#F6F8FA" stroke="#D8DFE5"/>
<text x="286" y="251" font-family="Arial" font-size="17" font-weight="normal" fill="#172536">Other</text>
<rect x="536" y="224" width="260" height="52" fill="#F6F8FA" stroke="#D8DFE5"/>
<text x="546" y="251" font-family="Arial" font-size="17" font-weight="normal" fill="#172536">Other</text>
<rect x="796" y="224" width="260" height="52" fill="#F6F8FA" stroke="#D8DFE5"/>
<text x="806" y="251" font-family="Arial" font-size="17" font-weight="normal" fill="#172536">10.0</text>
<rect x="16" y="276" width="260" height="52" fill="white" stroke="#D8DFE5"/>
<text x="26" y="303" font-family="Arial" font-size="17" font-weight="normal" fill="#172536">Bank Charges</text>
<rect x="276" y="276" width="260" height="52" fill="white" stroke="#D8DFE5"/>
<text x="286" y="303" font-family="Arial" font-size="17" font-weight="normal" fill="#172536">Other</text>
<rect x="536" y="276" width="260" height="52" fill="white" stroke="#D8DFE5"/>
<text x="546" y="303" font-family="Arial" font-size="17" font-weight="normal" fill="#172536">Other</text>
<rect x="796" y="276" width="260" height="52" fill="white" stroke="#D8DFE5"/>
<text x="806" y="303" font-family="Arial" font-size="17" font-weight="normal" fill="#172536">12.0</text>
<rect x="16" y="328" width="260" height="52" fill="#F6F8FA" stroke="#D8DFE5"/>
<text x="26" y="355" font-family="Arial" font-size="17" font-weight="normal" fill="#172536">Business Gifts</text>
<rect x="276" y="328" width="260" height="52" fill="#F6F8FA" stroke="#D8DFE5"/>
<text x="286" y="355" font-family="Arial" font-size="17" font-weight="normal" fill="#172536">Other</text>
<rect x="536" y="328" width="260" height="52" fill="#F6F8FA" stroke="#D8DFE5"/>
<text x="546" y="355" font-family="Arial" font-size="17" font-weight="normal" fill="#172536">Other</text>
<rect x="796" y="328" width="260" height="52" fill="#F6F8FA" stroke="#D8DFE5"/>
<text x="806" y="355" font-family="Arial" font-size="17" font-weight="normal" fill="#172536">13.0</text>
</svg>