<svg xmlns="http://www.w3.org/2000/svg" width="1592" height="458" viewBox="0 0 1592 458">
<rect width="100%" height="100%" fill="white"/><rect width="100%" height="54" fill="#153351"/>
<text x="16" y="35" font-family="Arial" font-size="22" fill="white">Store Comparability</text>
<rect x="16" y="68" width="260" height="52" fill="#E9EEF3" stroke="#D8DFE5"/>
<text x="26" y="95" font-family="Arial" font-size="17" font-weight="bold" fill="#172536">StoreKey</text>
<rect x="276" y="68" width="260" height="52" fill="#E9EEF3" stroke="#D8DFE5"/>
<text x="286" y="95" font-family="Arial" font-size="17" font-weight="bold" fill="#172536">Months 2019</text>
<rect x="536" y="68" width="260" height="52" fill="#E9EEF3" stroke="#D8DFE5"/>
<text x="546" y="95" font-family="Arial" font-size="17" font-weight="bold" fill="#172536">Months 2020</text>
<rect x="796" y="68" width="260" height="52" fill="#E9EEF3" stroke="#D8DFE5"/>
<text x="806" y="95" font-family="Arial" font-size="17" font-weight="bold" fill="#172536">Comparable</text>
<rect x="1056" y="68" width="260" height="52" fill="#E9EEF3" stroke="#D8DFE5"/>
<text x="1066" y="95" font-family="Arial" font-size="17" font-weight="bold" fill="#172536">Cohort</text>
<rect x="1316" y="68" width="260" height="52" fill="#E9EEF3" stroke="#D8DFE5"/>
<text x="1326" y="95" font-family="Arial" font-size="17" font-weight="bold" fill="#172536">Revenue 2019</text>
<rect x="16" y="120" width="260" height="64" fill="#F6F8FA" stroke="#D8DFE5"/>
<text x="26" y="147" font-family="Arial" font-size="17" font-weight="normal" fill="#172536">1</text>
<rect x="276" y="120" width="260" height="64" fill="#F6F8FA" stroke="#D8DFE5"/>
<text x="286" y="147" font-family="Arial" font-size="17" font-weight="normal" fill="#172536">12.00000000</text>
<rect x="536" y="120" width="260" height="64" fill="#F6F8FA" stroke="#D8DFE5"/>
<text x="546" y="147" font-family="Arial" font-size="17" font-weight="normal" fill="#172536">9.00000000</text>
<rect x="796" y="120" width="260" height="64" fill="#F6F8FA" stroke="#D8DFE5"/>
<text x="806" y="147" font-family="Arial" font-size="17" font-weight="normal" fill="#172536">0</text>
<rect x="1056" y="120" width="260" height="64" fill="#F6F8FA" stroke="#D8DFE5"/>
<text x="1066" y="147" font-family="Arial" font-size="17" font-weight="normal" fill="#172536">Established, incomplete</text>
<text x="1066" y="169" font-family="Arial" font-size="17" font-weight="normal" fill="#172536">monthly coverage</text>
<rect x="1316" y="120" width="260" height="64" fill="#F6F8FA" stroke="#D8DFE5"/>
<text x="1326" y="147" font-family="Arial" font-size="17" font-weight="normal" fill="#172536">83345.18000000</text>
<rect x="16" y="184" width="260" height="64" fill="white" stroke="#D8DFE5"/>
<text x="26" y="211" font-family="Arial" font-size="17" font-weight="normal" fill="#172536">2</text>
<rect x="276" y="184" width="260" height="64" fill="white" stroke="#D8DFE5"/>
<text x="286" y="211" font-family="Arial" font-size="17" font-weight="normal" fill="#172536">0.00000000</text>
<rect x="536" y="184" width="260" height="64" fill="white" stroke="#D8DFE5"/>
<text x="546" y="211" font-family="Arial" font-size="17" font-weight="normal" fill="#172536">0.00000000</text>
<rect x="796" y="184" width="260" height="64" fill="white" stroke="#D8DFE5"/>
<text x="806" y="211" font-family="Arial" font-size="17" font-weight="normal" fill="#172536">0</text>
<rect x="1056" y="184" width="260" height="64" fill="white" stroke="#D8DFE5"/>
<text x="1066" y="211" font-family="Arial" font-size="17" font-weight="normal" fill="#172536">Established, incomplete</text>
<text x="1066" y="233" font-family="Arial" font-size="17" font-weight="normal" fill="#172536">monthly coverage</text>
<rect x="1316" y="184" width="260" height="64" fill="white" stroke="#D8DFE5"/>
<text x="1326" y="211" font-family="Arial" font-size="17" font-weight="normal" fill="#172536">0.00000000</text>
<rect x="16" y="248" width="260" height="64" fill="#F6F8FA" stroke="#D8DFE5"/>
<text x="26" y="275" font-family="Arial" font-size="17" font-weight="normal" fill="#172536">3</text>
<rect x="276" y="248" width="260" height="64" fill="#F6F8FA" stroke="#D8DFE5"/>
<text x="286" y="275" font-family="Arial" font-size="17" font-weight="normal" fill="#172536">0.00000000</text>
<rect x="536" y="248" width="260" height="64" fill="#F6F8FA" stroke="#D8DFE5"/>
<text x="546" y="275" font-family="Arial" font-size="17" font-weight="normal" fill="#172536">0.00000000</text>
<rect x="796" y="248" width="260" height="64" fill="#F6F8FA" stroke="#D8DFE5"/>
<text x="806" y="275" font-family="Arial" font-size="17" font-weight="normal" fill="#172536">0</text>
<rect x="1056" y="248" width="260" height="64" fill="#F6F8FA" stroke="#D8DFE5"/>
<text x="1066" y="275" font-family="Arial" font-size="17" font-weight="normal" fill="#172536">Established, incomplete</text>
<text x="1066" y="297" font-family="Arial" font-size="17" font-weight="normal" fill="#172536">monthly coverage</text>
<rect x="1316" y="248" width="260" height="64" fill="#F6F8FA" stroke="#D8DFE5"/>
<text x="1326" y="275" font-family="Arial" font-size="17" font-weight="normal" fill="#172536">0.00000000</text>
<rect x="16" y="312" width="260" height="64" fill="white" stroke="#D8DFE5"/>
<text x="26" y="339" font-family="Arial" font-size="17" font-weight="normal" fill="#172536">4</text>
<rect x="276" y="312" width="260" height="64" fill="white" stroke="#D8DFE5"/>
<text x="286" y="339" font-family="Arial" font-size="17" font-weight="normal" fill="#172536">11.00000000</text>
<rect x="536" y="312" width="260" height="64" fill="white" stroke="#D8DFE5"/>
<text x="546" y="339" font-family="Arial" font-size="17" font-weight="normal" fill="#172536">7.00000000</text>
<rect x="796" y="312" width="260" height="64" fill="white" stroke="#D8DFE5"/>
<text x="806" y="339" font-family="Arial" font-size="17" font-weight="normal" fill="#172536">0</text>
<rect x="1056" y="312" width="260" height="64" fill="white" stroke="#D8DFE5"/>
<text x="1066" y="339" font-family="Arial" font-size="17" font-weight="normal" fill="#172536">Established, incomplete</text>
<text x="1066" y="361" font-family="Arial" font-size="17" font-weight="normal" fill="#172536">monthly coverage</text>
<rect x="1316" y="312" width="260" height="64" fill="white" stroke="#D8DFE5"/>
<text x="1326" y="339" font-family="Arial" font-size="17" font-weight="normal" fill="#172536">181319.47000000</text>
<rect x="16" y="376" width="260" height="64" fill="#F6F8FA" stroke="#D8DFE5"/>
<text x="26" y="403" font-family="Arial" font-size="17" font-weight="normal" fill="#172536">5</text>
<rect x="276" y="376" width="260" height="64" fill="#F6F8FA" stroke="#D8DFE5"/>
<text x="286" y="403" font-family="Arial" font-size="17" font-weight="normal" fill="#172536">12.00000000</text>
<rect x="536" y="376" width="260" height="64" fill="#F6F8FA" stroke="#D8DFE5"/>
<text x="546" y="403" font-family="Arial" font-size="17" font-weight="normal" fill="#172536">10.00000000</text>
<rect x="796" y="376" width="260" height="64" fill="#F6F8FA" stroke="#D8DFE5"/>
<text x="806" y="403" font-family="Arial" font-size="17" font-weight="normal" fill="#172536">0</text>
<rect x="1056" y="376" width="260" height="64" fill="#F6F8FA" stroke="#D8DFE5"/>
<text x="1066" y="403" font-family="Arial" font-size="17" font-weight="normal" fill="#172536">Established, incomplete</text>
<text x="1066" y="425" font-family="Arial" font-size="17" font-weight="normal" fill="#172536">monthly coverage</text>
<rect x="1316" y="376" width="260" height="64" fill="#F6F8FA" stroke="#D8DFE5"/>
<text x="1326" y="403" font-family="Arial" font-size="17" font-weight="normal" fill="#172536">277555.37000000</text>
</svg>