<svg xmlns="http://www.w3.org/2000/svg" width="1332" height="410" viewBox="0 0 1332 410">
<rect width="100%" height="100%" fill="white"/><rect width="100%" height="54" fill="#153351"/>
<text x="16" y="35" font-family="Arial" font-size="22" fill="white">Store Comparability</text>
<rect x="16" y="68" width="260" height="52" fill="#E9EEF3" stroke="#D8DFE5"/>
<text x="26" y="95" font-family="Arial" font-size="17" font-weight="bold" fill="#172536">StoreKey</text>
<rect x="276" y="68" width="260" height="52" fill="#E9EEF3" stroke="#D8DFE5"/>
<text x="286" y="95" font-family="Arial" font-size="17" font-weight="bold" fill="#172536">Store Country</text>
<rect x="536" y="68" width="260" height="52" fill="#E9EEF3" stroke="#D8DFE5"/>
<text x="546" y="95" font-family="Arial" font-size="17" font-weight="bold" fill="#172536">Store State</text>
<rect x="796" y="68" width="260" height="52" fill="#E9EEF3" stroke="#D8DFE5"/>
<text x="806" y="95" font-family="Arial" font-size="17" font-weight="bold" fill="#172536">Square Meters</text>
<rect x="1056" y="68" width="260" height="52" fill="#E9EEF3" stroke="#D8DFE5"/>
<text x="1066" y="95" font-family="Arial" font-size="17" font-weight="bold" fill="#172536">Open Date</text>
<rect x="16" y="120" width="260" height="64" fill="#F6F8FA" stroke="#D8DFE5"/>
<text x="26" y="147" font-family="Arial" font-size="17" font-weight="normal" fill="#172536">1</text>
<rect x="276" y="120" width="260" height="64" fill="#F6F8FA" stroke="#D8DFE5"/>
<text x="286" y="147" font-family="Arial" font-size="17" font-weight="normal" fill="#172536">Australia</text>
<rect x="536" y="120" width="260" height="64" fill="#F6F8FA" stroke="#D8DFE5"/>
<text x="546" y="147" font-family="Arial" font-size="17" font-weight="normal" fill="#172536">Australian Capital</text>
<text x="546" y="169" font-family="Arial" font-size="17" font-weight="normal" fill="#172536">Territory</text>
<rect x="796" y="120" width="260" height="64" fill="#F6F8FA" stroke="#D8DFE5"/>
<text x="806" y="147" font-family="Arial" font-size="17" font-weight="normal" fill="#172536">595.00000000</text>
<rect x="1056" y="120" width="260" height="64" fill="#F6F8FA" stroke="#D8DFE5"/>
<text x="1066" y="147" font-family="Arial" font-size="17" font-weight="normal" fill="#172536">2008-01-01</text>
<rect x="16" y="184" width="260" height="52" fill="white" stroke="#D8DFE5"/>
<text x="26" y="211" font-family="Arial" font-size="17" font-weight="normal" fill="#172536">2</text>
<rect x="276" y="184" width="260" height="52" fill="white" stroke="#D8DFE5"/>
<text x="286" y="211" font-family="Arial" font-size="17" font-weight="normal" fill="#172536">Australia</text>
<rect x="536" y="184" width="260" height="52" fill="white" stroke="#D8DFE5"/>
<text x="546" y="211" font-family="Arial" font-size="17" font-weight="normal" fill="#172536">Northern Territory</text>
<rect x="796" y="184" width="260" height="52" fill="white" stroke="#D8DFE5"/>
<text x="806" y="211" font-family="Arial" font-size="17" font-weight="normal" fill="#172536">665.00000000</text>
<rect x="1056" y="184" width="260" height="52" fill="white" stroke="#D8DFE5"/>
<text x="1066" y="211" font-family="Arial" font-size="17" font-weight="normal" fill="#172536">2008-01-12</text>
<rect x="16" y="236" width="260" height="52" fill="#F6F8FA" stroke="#D8DFE5"/>
<text x="26" y="263" font-family="Arial" font-size="17" font-weight="normal" fill="#172536">3</text>
<rect x="276" y="236" width="260" height="52" fill="#F6F8FA" stroke="#D8DFE5"/>
<text x="286" y="263" font-family="Arial" font-size="17" font-weight="normal" fill="#172536">Australia</text>
<rect x="536" y="236" width="260" height="52" fill="#F6F8FA" stroke="#D8DFE5"/>
<text x="546" y="263" font-family="Arial" font-size="17" font-weight="normal" fill="#172536">South Australia</text>
<rect x="796" y="236" width="260" height="52" fill="#F6F8FA" stroke="#D8DFE5"/>
<text x="806" y="263" font-family="Arial" font-size="17" font-weight="normal" fill="#172536">2000.00000000</text>
<rect x="1056" y="236" width="260" height="52" fill="#F6F8FA" stroke="#D8DFE5"/>
<text x="1066" y="263" font-family="Arial" font-size="17" font-weight="normal" fill="#172536">2012-01-07</text>
<rect x="16" y="288" width="260" height="52" fill="white" stroke="#D8DFE5"/>
<text x="26" y="315" font-family="Arial" font-size="17" font-weight="normal" fill="#172536">4</text>
<rect x="276" y="288" width="260" height="52" fill="white" stroke="#D8DFE5"/>
<text x="286" y="315" font-family="Arial" font-size="17" font-weight="normal" fill="#172536">Australia</text>
<rect x="536" y="288" width="260" height="52" fill="white" stroke="#D8DFE5"/>
<text x="546" y="315" font-family="Arial" font-size="17" font-weight="normal" fill="#172536">Tasmania</text>
<rect x="796" y="288" width="260" height="52" fill="white" stroke="#D8DFE5"/>
<text x="806" y="315" font-family="Arial" font-size="17" font-weight="normal" fill="#172536">2000.00000000</text>
<rect x="1056" y="288" width="260" height="52" fill="white" stroke="#D8DFE5"/>
<text x="1066" y="315" font-family="Arial" font-size="17" font-weight="normal" fill="#172536">2010-01-01</text>
<rect x="16" y="340" width="260" height="52" fill="#F6F8FA" stroke="#D8DFE5"/>
<text x="26" y="367" font-family="Arial" font-size="17" font-weight="normal" fill="#172536">5</text>
<rect x="276" y="340" width="260" height="52" fill="#F6F8FA" stroke="#D8DFE5"/>
<text x="286" y="367" font-family="Arial" font-size="17" font-weight="normal" fill="#172536">Australia</text>
<rect x="536" y="340" width="260" height="52" fill="#F6F8FA" stroke="#D8DFE5"/>
<text x="546" y="367" font-family="Arial" font-size="17" font-weight="normal" fill="#172536">Victoria</text>
<rect x="796" y="340" width="260" height="52" fill="#F6F8FA" stroke="#D8DFE5"/>
<text x="806" y="367" font-family="Arial" font-size="17" font-weight="normal" fill="#172536">2000.00000000</text>
<rect x="1056" y="340" width="260" height="52" fill="#F6F8FA" stroke="#D8DFE5"/>
<text x="1066" y="367" font-family="Arial" font-size="17" font-weight="normal" fill="#172536">2015-12-09</text>
</svg>