<svg xmlns="http://www.w3.org/2000/svg" width="1072" height="410" viewBox="0 0 1072 410">
<rect width="100%" height="100%" fill="white"/><rect width="100%" height="54" fill="#257F77"/>
<text x="16" y="35" font-family="Arial" font-size="22" fill="white">Review</text>
<rect x="16" y="68" width="260" height="52" fill="#E9EEF3" stroke="#D8DFE5"/>
<text x="26" y="95" font-family="Arial" font-size="17" font-weight="bold" fill="#172536">Metric</text>
<rect x="276" y="68" width="260" height="52" fill="#E9EEF3" stroke="#D8DFE5"/>
<text x="286" y="95" font-family="Arial" font-size="17" font-weight="bold" fill="#172536">Q4 2013</text>
<rect x="536" y="68" width="260" height="52" fill="#E9EEF3" stroke="#D8DFE5"/>
<text x="546" y="95" font-family="Arial" font-size="17" font-weight="bold" fill="#172536">Q4 2014</text>
<rect x="796" y="68" width="260" height="52" fill="#E9EEF3" stroke="#D8DFE5"/>
<text x="806" y="95" font-family="Arial" font-size="17" font-weight="bold" fill="#172536">Change</text>
<rect x="16" y="120" width="260" height="52" fill="#F6F8FA" stroke="#D8DFE5"/>
<text x="26" y="147" font-family="Arial" font-size="17" font-weight="normal" fill="#172536">Sales</text>
<rect x="276" y="120" width="260" height="52" fill="#F6F8FA" stroke="#D8DFE5"/>
<text x="286" y="147" font-family="Arial" font-size="17" font-weight="normal" fill="#172536">21,931,255.48</text>
<rect x="536" y="120" width="260" height="52" fill="#F6F8FA" stroke="#D8DFE5"/>
<text x="546" y="147" font-family="Arial" font-size="17" font-weight="normal" fill="#172536">29,758,822.02</text>
<rect x="796" y="120" width="260" height="52" fill="#F6F8FA" stroke="#D8DFE5"/>
<text x="806" y="147" font-family="Arial" font-size="17" font-weight="normal" fill="#172536">7,827,566.54</text>
<rect x="16" y="172" width="260" height="52" fill="white" stroke="#D8DFE5"/>
<text x="26" y="199" font-family="Arial" font-size="17" font-weight="normal" fill="#172536">Sample profit</text>
<rect x="276" y="172" width="260" height="52" fill="white" stroke="#D8DFE5"/>
<text x="286" y="199" font-family="Arial" font-size="17" font-weight="normal" fill="#172536">3,114,861.48</text>
<rect x="536" y="172" width="260" height="52" fill="white" stroke="#D8DFE5"/>
<text x="546" y="199" font-family="Arial" font-size="17" font-weight="normal" fill="#172536">4,412,352.02</text>
<rect x="796" y="172" width="260" height="52" fill="white" stroke="#D8DFE5"/>
<text x="806" y="199" font-family="Arial" font-size="17" font-weight="normal" fill="#172536">1,297,490.54</text>
<rect x="16" y="224" width="260" height="52" fill="#F6F8FA" stroke="#D8DFE5"/>
<text x="26" y="251" font-family="Arial" font-size="17" font-weight="normal" fill="#172536">Margin</text>
<rect x="276" y="224" width="260" height="52" fill="#F6F8FA" stroke="#D8DFE5"/>
<text x="286" y="251" font-family="Arial" font-size="17" font-weight="normal" fill="#172536">0.14</text>
<rect x="536" y="224" width="260" height="52" fill="#F6F8FA" stroke="#D8DFE5"/>
<text x="546" y="251" font-family="Arial" font-size="17" font-weight="normal" fill="#172536">0.15</text>
<rect x="796" y="224" width="260" height="52" fill="#F6F8FA" stroke="#D8DFE5"/>
<text x="806" y="251" font-family="Arial" font-size="17" font-weight="normal" fill="#172536">0.62</text>
<rect x="16" y="276" width="260" height="52" fill="white" stroke="#D8DFE5"/>
<text x="26" y="303" font-family="Arial" font-size="17" font-weight="normal" fill="#172536">Candidate</text>
<rect x="276" y="276" width="260" height="52" fill="white" stroke="#D8DFE5"/>
<text x="286" y="303" font-family="Arial" font-size="17" font-weight="normal" fill="#172536">Next step</text>
<rect x="536" y="276" width="260" height="52" fill="white" stroke="#D8DFE5"/>
<text x="546" y="303" font-family="Arial" font-size="17" font-weight="normal" fill="#172536">Evidence needed</text>
<rect x="796" y="276" width="260" height="52" fill="white" stroke="#D8DFE5"/>
<text x="806" y="303" font-family="Arial" font-size="17" font-weight="normal" fill="#172536">Owner response</text>
<rect x="16" y="328" width="260" height="64" fill="#F6F8FA" stroke="#D8DFE5"/>
<text x="26" y="355" font-family="Arial" font-size="17" font-weight="normal" fill="#172536">Paseo / Small Business</text>
<rect x="276" y="328" width="260" height="64" fill="#F6F8FA" stroke="#D8DFE5"/>
<text x="286" y="355" font-family="Arial" font-size="17" font-weight="normal" fill="#172536">Test discount policy</text>
<rect x="536" y="328" width="260" height="64" fill="#F6F8FA" stroke="#D8DFE5"/>
<text x="546" y="355" font-family="Arial" font-size="17" font-weight="normal" fill="#172536">Contracts, demand</text>
<text x="546" y="377" font-family="Arial" font-size="17" font-weight="normal" fill="#172536">response, fixed costs</text>
<rect x="796" y="328" width="260" height="64" fill="#F6F8FA" stroke="#D8DFE5"/>
<text x="806" y="355" font-family="Arial" font-size="17" font-weight="normal" fill="#172536"></text>
</svg>