<svg xmlns="http://www.w3.org/2000/svg" width="1592" height="398" viewBox="0 0 1592 398">
<rect width="100%" height="100%" fill="white"/><rect width="100%" height="54" fill="#153351"/>
<text x="16" y="35" font-family="Arial" font-size="22" fill="white">Product Build</text>
<rect x="16" y="68" width="260" height="52" fill="#E9EEF3" stroke="#D8DFE5"/>
<text x="26" y="95" font-family="Arial" font-size="17" font-weight="bold" fill="#172536">ProductKey</text>
<rect x="276" y="68" width="260" height="52" fill="#E9EEF3" stroke="#D8DFE5"/>
<text x="286" y="95" font-family="Arial" font-size="17" font-weight="bold" fill="#172536">Margin</text>
<rect x="536" y="68" width="260" height="52" fill="#E9EEF3" stroke="#D8DFE5"/>
<text x="546" y="95" font-family="Arial" font-size="17" font-weight="bold" fill="#172536">AOV</text>
<rect x="796" y="68" width="260" height="52" fill="#E9EEF3" stroke="#D8DFE5"/>
<text x="806" y="95" font-family="Arial" font-size="17" font-weight="bold" fill="#172536">Units per order</text>
<rect x="1056" y="68" width="260" height="52" fill="#E9EEF3" stroke="#D8DFE5"/>
<text x="1066" y="95" font-family="Arial" font-size="17" font-weight="bold" fill="#172536">Unit Price USD</text>
<rect x="1316" y="68" width="260" height="52" fill="#E9EEF3" stroke="#D8DFE5"/>
<text x="1326" y="95" font-family="Arial" font-size="17" font-weight="bold" fill="#172536">Unit Cost USD</text>
<rect x="16" y="120" width="260" height="52" fill="#F6F8FA" stroke="#D8DFE5"/>
<text x="26" y="147" font-family="Arial" font-size="17" font-weight="normal" fill="#172536">1</text>
<rect x="276" y="120" width="260" height="52" fill="#F6F8FA" stroke="#D8DFE5"/>
<text x="286" y="147" font-family="Arial" font-size="17" font-weight="normal" fill="#172536">49.0%</text>
<rect x="536" y="120" width="260" height="52" fill="#F6F8FA" stroke="#D8DFE5"/>
<text x="546" y="147" font-family="Arial" font-size="17" font-weight="normal" fill="#172536">36.71086957</text>
<rect x="796" y="120" width="260" height="52" fill="#F6F8FA" stroke="#D8DFE5"/>
<text x="806" y="147" font-family="Arial" font-size="17" font-weight="normal" fill="#172536">2.82608696</text>
<rect x="1056" y="120" width="260" height="52" fill="#F6F8FA" stroke="#D8DFE5"/>
<text x="1066" y="147" font-family="Arial" font-size="17" font-weight="normal" fill="#172536">$12.99</text>
<rect x="1316" y="120" width="260" height="52" fill="#F6F8FA" stroke="#D8DFE5"/>
<text x="1326" y="147" font-family="Arial" font-size="17" font-weight="normal" fill="#172536">$6.62</text>
<rect x="16" y="172" width="260" height="52" fill="white" stroke="#D8DFE5"/>
<text x="26" y="199" font-family="Arial" font-size="17" font-weight="normal" fill="#172536">10</text>
<rect x="276" y="172" width="260" height="52" fill="white" stroke="#D8DFE5"/>
<text x="286" y="199" font-family="Arial" font-size="17" font-weight="normal" fill="#172536">49.0%</text>
<rect x="536" y="172" width="260" height="52" fill="white" stroke="#D8DFE5"/>
<text x="546" y="199" font-family="Arial" font-size="17" font-weight="normal" fill="#172536">185.11200000</text>
<rect x="796" y="172" width="260" height="52" fill="white" stroke="#D8DFE5"/>
<text x="806" y="199" font-family="Arial" font-size="17" font-weight="normal" fill="#172536">3.08571429</text>
<rect x="1056" y="172" width="260" height="52" fill="white" stroke="#D8DFE5"/>
<text x="1066" y="199" font-family="Arial" font-size="17" font-weight="normal" fill="#172536">$59.99</text>
<rect x="1316" y="172" width="260" height="52" fill="white" stroke="#D8DFE5"/>
<text x="1326" y="199" font-family="Arial" font-size="17" font-weight="normal" fill="#172536">$30.58</text>
<rect x="16" y="224" width="260" height="52" fill="#F6F8FA" stroke="#D8DFE5"/>
<text x="26" y="251" font-family="Arial" font-size="17" font-weight="normal" fill="#172536">100</text>
<rect x="276" y="224" width="260" height="52" fill="#F6F8FA" stroke="#D8DFE5"/>
<text x="286" y="251" font-family="Arial" font-size="17" font-weight="normal" fill="#172536">54.0%</text>
<rect x="536" y="224" width="260" height="52" fill="#F6F8FA" stroke="#D8DFE5"/>
<text x="546" y="251" font-family="Arial" font-size="17" font-weight="normal" fill="#172536">316.80000000</text>
<rect x="796" y="224" width="260" height="52" fill="#F6F8FA" stroke="#D8DFE5"/>
<text x="806" y="251" font-family="Arial" font-size="17" font-weight="normal" fill="#172536">2.64000000</text>
<rect x="1056" y="224" width="260" height="52" fill="#F6F8FA" stroke="#D8DFE5"/>
<text x="1066" y="251" font-family="Arial" font-size="17" font-weight="normal" fill="#172536">$120.00</text>
<rect x="1316" y="224" width="260" height="52" fill="#F6F8FA" stroke="#D8DFE5"/>
<text x="1326" y="251" font-family="Arial" font-size="17" font-weight="normal" fill="#172536">$55.18</text>
<rect x="16" y="276" width="260" height="52" fill="white" stroke="#D8DFE5"/>
<text x="26" y="303" font-family="Arial" font-size="17" font-weight="normal" fill="#172536">1000</text>
<rect x="276" y="276" width="260" height="52" fill="white" stroke="#D8DFE5"/>
<text x="286" y="303" font-family="Arial" font-size="17" font-weight="normal" fill="#172536">54.0%</text>
<rect x="536" y="276" width="260" height="52" fill="white" stroke="#D8DFE5"/>
<text x="546" y="303" font-family="Arial" font-size="17" font-weight="normal" fill="#172536">410.45454545</text>
<rect x="796" y="276" width="260" height="52" fill="white" stroke="#D8DFE5"/>
<text x="806" y="303" font-family="Arial" font-size="17" font-weight="normal" fill="#172536">3.18181818</text>
<rect x="1056" y="276" width="260" height="52" fill="white" stroke="#D8DFE5"/>
<text x="1066" y="303" font-family="Arial" font-size="17" font-weight="normal" fill="#172536">$129.00</text>
<rect x="1316" y="276" width="260" height="52" fill="white" stroke="#D8DFE5"/>
<text x="1326" y="303" font-family="Arial" font-size="17" font-weight="normal" fill="#172536">$59.32</text>
<rect x="16" y="328" width="260" height="52" fill="#F6F8FA" stroke="#D8DFE5"/>
<text x="26" y="355" font-family="Arial" font-size="17" font-weight="normal" fill="#172536">1001</text>
<rect x="276" y="328" width="260" height="52" fill="#F6F8FA" stroke="#D8DFE5"/>
<text x="286" y="355" font-family="Arial" font-size="17" font-weight="normal" fill="#172536">66.9%</text>
<rect x="536" y="328" width="260" height="52" fill="#F6F8FA" stroke="#D8DFE5"/>
<text x="546" y="355" font-family="Arial" font-size="17" font-weight="normal" fill="#172536">614.28571429</text>
<rect x="796" y="328" width="260" height="52" fill="#F6F8FA" stroke="#D8DFE5"/>
<text x="806" y="355" font-family="Arial" font-size="17" font-weight="normal" fill="#172536">3.07142857</text>
<rect x="1056" y="328" width="260" height="52" fill="#F6F8FA" stroke="#D8DFE5"/>
<text x="1066" y="355" font-family="Arial" font-size="17" font-weight="normal" fill="#172536">$200.00</text>
<rect x="1316" y="328" width="260" height="52" fill="#F6F8FA" stroke="#D8DFE5"/>
<text x="1326" y="355" font-family="Arial" font-size="17" font-weight="normal" fill="#172536">$66.26</text>
</svg>