<svg xmlns="http://www.w3.org/2000/svg" width="1332" height="398" viewBox="0 0 1332 398">
<rect width="100%" height="100%" fill="white"/><rect width="100%" height="54" fill="#153351"/>
<text x="16" y="35" font-family="Arial" font-size="22" fill="white">Annual</text>
<rect x="16" y="68" width="260" height="52" fill="#E9EEF3" stroke="#D8DFE5"/>
<text x="26" y="95" font-family="Arial" font-size="17" font-weight="bold" fill="#172536">Year</text>
<rect x="276" y="68" width="260" height="52" fill="#E9EEF3" stroke="#D8DFE5"/>
<text x="286" y="95" font-family="Arial" font-size="17" font-weight="bold" fill="#172536">Revenue</text>
<rect x="536" y="68" width="260" height="52" fill="#E9EEF3" stroke="#D8DFE5"/>
<text x="546" y="95" font-family="Arial" font-size="17" font-weight="bold" fill="#172536">Cost</text>
<rect x="796" y="68" width="260" height="52" fill="#E9EEF3" stroke="#D8DFE5"/>
<text x="806" y="95" font-family="Arial" font-size="17" font-weight="bold" fill="#172536">GP</text>
<rect x="1056" y="68" width="260" height="52" fill="#E9EEF3" stroke="#D8DFE5"/>
<text x="1066" y="95" font-family="Arial" font-size="17" font-weight="bold" fill="#172536">Units</text>
<rect x="16" y="120" width="260" height="52" fill="#F6F8FA" stroke="#D8DFE5"/>
<text x="26" y="147" font-family="Arial" font-size="17" font-weight="normal" fill="#172536">2016</text>
<rect x="276" y="120" width="260" height="52" fill="#F6F8FA" stroke="#D8DFE5"/>
<text x="286" y="147" font-family="Arial" font-size="17" font-weight="normal" fill="#172536">6946793.56000000</text>
<rect x="536" y="120" width="260" height="52" fill="#F6F8FA" stroke="#D8DFE5"/>
<text x="546" y="147" font-family="Arial" font-size="17" font-weight="normal" fill="#172536">2839793.09000000</text>
<rect x="796" y="120" width="260" height="52" fill="#F6F8FA" stroke="#D8DFE5"/>
<text x="806" y="147" font-family="Arial" font-size="17" font-weight="normal" fill="#172536">4107000.47000000</text>
<rect x="1056" y="120" width="260" height="52" fill="#F6F8FA" stroke="#D8DFE5"/>
<text x="1066" y="147" font-family="Arial" font-size="17" font-weight="normal" fill="#172536">21761</text>
<rect x="16" y="172" width="260" height="52" fill="white" stroke="#D8DFE5"/>
<text x="26" y="199" font-family="Arial" font-size="17" font-weight="normal" fill="#172536">2017</text>
<rect x="276" y="172" width="260" height="52" fill="white" stroke="#D8DFE5"/>
<text x="286" y="199" font-family="Arial" font-size="17" font-weight="normal" fill="#172536">7421422.27000000</text>
<rect x="536" y="172" width="260" height="52" fill="white" stroke="#D8DFE5"/>
<text x="546" y="199" font-family="Arial" font-size="17" font-weight="normal" fill="#172536">3084358.21000000</text>
<rect x="796" y="172" width="260" height="52" fill="white" stroke="#D8DFE5"/>
<text x="806" y="199" font-family="Arial" font-size="17" font-weight="normal" fill="#172536">4337064.06000000</text>
<rect x="1056" y="172" width="260" height="52" fill="white" stroke="#D8DFE5"/>
<text x="1066" y="199" font-family="Arial" font-size="17" font-weight="normal" fill="#172536">24798</text>
<rect x="16" y="224" width="260" height="52" fill="#F6F8FA" stroke="#D8DFE5"/>
<text x="26" y="251" font-family="Arial" font-size="17" font-weight="normal" fill="#172536">2018</text>
<rect x="276" y="224" width="260" height="52" fill="#F6F8FA" stroke="#D8DFE5"/>
<text x="286" y="251" font-family="Arial" font-size="17" font-weight="normal" fill="#172536">12788960.66000000</text>
<rect x="536" y="224" width="260" height="52" fill="#F6F8FA" stroke="#D8DFE5"/>
<text x="546" y="251" font-family="Arial" font-size="17" font-weight="normal" fill="#172536">5323999.55000000</text>
<rect x="796" y="224" width="260" height="52" fill="#F6F8FA" stroke="#D8DFE5"/>
<text x="806" y="251" font-family="Arial" font-size="17" font-weight="normal" fill="#172536">7464961.11000000</text>
<rect x="1056" y="224" width="260" height="52" fill="#F6F8FA" stroke="#D8DFE5"/>
<text x="1066" y="251" font-family="Arial" font-size="17" font-weight="normal" fill="#172536">44498</text>
<rect x="16" y="276" width="260" height="52" fill="white" stroke="#D8DFE5"/>
<text x="26" y="303" font-family="Arial" font-size="17" font-weight="normal" fill="#172536">2019</text>
<rect x="276" y="276" width="260" height="52" fill="white" stroke="#D8DFE5"/>
<text x="286" y="303" font-family="Arial" font-size="17" font-weight="normal" fill="#172536">18264382.48000000</text>
<rect x="536" y="276" width="260" height="52" fill="white" stroke="#D8DFE5"/>
<text x="546" y="303" font-family="Arial" font-size="17" font-weight="normal" fill="#172536">7566643.58000000</text>
<rect x="796" y="276" width="260" height="52" fill="white" stroke="#D8DFE5"/>
<text x="806" y="303" font-family="Arial" font-size="17" font-weight="normal" fill="#172536">10697738.90000000</text>
<rect x="1056" y="276" width="260" height="52" fill="white" stroke="#D8DFE5"/>
<text x="1066" y="303" font-family="Arial" font-size="17" font-weight="normal" fill="#172536">68440</text>
<rect x="16" y="328" width="260" height="52" fill="#F6F8FA" stroke="#D8DFE5"/>
<text x="26" y="355" font-family="Arial" font-size="17" font-weight="normal" fill="#172536">2020</text>
<rect x="276" y="328" width="260" height="52" fill="#F6F8FA" stroke="#D8DFE5"/>
<text x="286" y="355" font-family="Arial" font-size="17" font-weight="normal" fill="#172536">9294632.14000000</text>
<rect x="536" y="328" width="260" height="52" fill="#F6F8FA" stroke="#D8DFE5"/>
<text x="546" y="355" font-family="Arial" font-size="17" font-weight="normal" fill="#172536">3847171.99000000</text>
<rect x="796" y="328" width="260" height="52" fill="#F6F8FA" stroke="#D8DFE5"/>
<text x="806" y="355" font-family="Arial" font-size="17" font-weight="normal" fill="#172536">5447460.15000000</text>
<rect x="1056" y="328" width="260" height="52" fill="#F6F8FA" stroke="#D8DFE5"/>
<text x="1066" y="355" font-family="Arial" font-size="17" font-weight="normal" fill="#172536">34463</text>
</svg>