<svg xmlns="http://www.w3.org/2000/svg" width="812" height="398" viewBox="0 0 812 398">
<rect width="100%" height="100%" fill="white"/><rect width="100%" height="54" fill="#153351"/>
<text x="16" y="35" font-family="Arial" font-size="22" fill="white">Drivers</text>
<rect x="16" y="68" width="260" height="52" fill="#E9EEF3" stroke="#D8DFE5"/>
<text x="26" y="95" font-family="Arial" font-size="17" font-weight="bold" fill="#172536">Metric</text>
<rect x="276" y="68" width="260" height="52" fill="#E9EEF3" stroke="#D8DFE5"/>
<text x="286" y="95" font-family="Arial" font-size="17" font-weight="bold" fill="#172536">2019</text>
<rect x="536" y="68" width="260" height="52" fill="#E9EEF3" stroke="#D8DFE5"/>
<text x="546" y="95" font-family="Arial" font-size="17" font-weight="bold" fill="#172536">2020</text>
<rect x="16" y="120" width="260" height="52" fill="#F6F8FA" stroke="#D8DFE5"/>
<text x="26" y="147" font-family="Arial" font-size="17" font-weight="normal" fill="#172536">Est. sales</text>
<rect x="276" y="120" width="260" height="52" fill="#F6F8FA" stroke="#D8DFE5"/>
<text x="286" y="147" font-family="Arial" font-size="17" font-weight="normal" fill="#172536">18,264,382.48</text>
<rect x="536" y="120" width="260" height="52" fill="#F6F8FA" stroke="#D8DFE5"/>
<text x="546" y="147" font-family="Arial" font-size="17" font-weight="normal" fill="#172536">9,294,632.14</text>
<rect x="16" y="172" width="260" height="52" fill="white" stroke="#D8DFE5"/>
<text x="26" y="199" font-family="Arial" font-size="17" font-weight="normal" fill="#172536">Distinct orders</text>
<rect x="276" y="172" width="260" height="52" fill="white" stroke="#D8DFE5"/>
<text x="286" y="199" font-family="Arial" font-size="17" font-weight="normal" fill="#172536">9,083</text>
<rect x="536" y="172" width="260" height="52" fill="white" stroke="#D8DFE5"/>
<text x="546" y="199" font-family="Arial" font-size="17" font-weight="normal" fill="#172536">4,635</text>
<rect x="16" y="224" width="260" height="52" fill="#F6F8FA" stroke="#D8DFE5"/>
<text x="26" y="251" font-family="Arial" font-size="17" font-weight="normal" fill="#172536">Est. order value</text>
<rect x="276" y="224" width="260" height="52" fill="#F6F8FA" stroke="#D8DFE5"/>
<text x="286" y="251" font-family="Arial" font-size="17" font-weight="normal" fill="#172536">2,010.83</text>
<rect x="536" y="224" width="260" height="52" fill="#F6F8FA" stroke="#D8DFE5"/>
<text x="546" y="251" font-family="Arial" font-size="17" font-weight="normal" fill="#172536">2,005.31</text>
<rect x="16" y="276" width="260" height="52" fill="white" stroke="#D8DFE5"/>
<text x="26" y="303" font-family="Arial" font-size="17" font-weight="normal" fill="#172536">Order count effect</text>
<rect x="276" y="276" width="260" height="52" fill="white" stroke="#D8DFE5"/>
<text x="286" y="303" font-family="Arial" font-size="17" font-weight="normal" fill="#172536">-8,944,178.5</text>
<rect x="536" y="276" width="260" height="52" fill="white" stroke="#D8DFE5"/>
<text x="546" y="303" font-family="Arial" font-size="17" font-weight="normal" fill="#172536"></text>
<rect x="16" y="328" width="260" height="52" fill="#F6F8FA" stroke="#D8DFE5"/>
<text x="26" y="355" font-family="Arial" font-size="17" font-weight="normal" fill="#172536">Order value / mix effect</text>
<rect x="276" y="328" width="260" height="52" fill="#F6F8FA" stroke="#D8DFE5"/>
<text x="286" y="355" font-family="Arial" font-size="17" font-weight="normal" fill="#172536">-25,571.84</text>
<rect x="536" y="328" width="260" height="52" fill="#F6F8FA" stroke="#D8DFE5"/>
<text x="546" y="355" font-family="Arial" font-size="17" font-weight="normal" fill="#172536"></text>
</svg>