<svg xmlns="http://www.w3.org/2000/svg" width="1072" height="410" viewBox="0 0 1072 410">
<rect width="100%" height="100%" fill="white"/><rect width="100%" height="54" fill="#153351"/>
<text x="16" y="35" font-family="Arial" font-size="22" fill="white">E10 Checks</text>
<rect x="16" y="68" width="260" height="52" fill="#E9EEF3" stroke="#D8DFE5"/>
<text x="26" y="95" font-family="Arial" font-size="17" font-weight="bold" fill="#172536">Check</text>
<rect x="276" y="68" width="260" height="52" fill="#E9EEF3" stroke="#D8DFE5"/>
<text x="286" y="95" font-family="Arial" font-size="17" font-weight="bold" fill="#172536">Observed</text>
<rect x="536" y="68" width="260" height="52" fill="#E9EEF3" stroke="#D8DFE5"/>
<text x="546" y="95" font-family="Arial" font-size="17" font-weight="bold" fill="#172536">Expected</text>
<rect x="796" y="68" width="260" height="52" fill="#E9EEF3" stroke="#D8DFE5"/>
<text x="806" y="95" font-family="Arial" font-size="17" font-weight="bold" fill="#172536">Difference</text>
<rect x="16" y="120" width="260" height="64" fill="#F6F8FA" stroke="#D8DFE5"/>
<text x="26" y="147" font-family="Arial" font-size="17" font-weight="normal" fill="#172536">Duplicate sales order-</text>
<text x="26" y="169" font-family="Arial" font-size="17" font-weight="normal" fill="#172536">line keys</text>
<rect x="276" y="120" width="260" height="64" fill="#F6F8FA" stroke="#D8DFE5"/>
<text x="286" y="147" font-family="Arial" font-size="17" font-weight="normal" fill="#172536">0</text>
<rect x="536" y="120" width="260" height="64" fill="#F6F8FA" stroke="#D8DFE5"/>
<text x="546" y="147" font-family="Arial" font-size="17" font-weight="normal" fill="#172536">0</text>
<rect x="796" y="120" width="260" height="64" fill="#F6F8FA" stroke="#D8DFE5"/>
<text x="806" y="147" font-family="Arial" font-size="17" font-weight="normal" fill="#172536">0</text>
<rect x="16" y="184" width="260" height="52" fill="white" stroke="#D8DFE5"/>
<text x="26" y="211" font-family="Arial" font-size="17" font-weight="normal" fill="#172536">Duplicate ProductKey</text>
<rect x="276" y="184" width="260" height="52" fill="white" stroke="#D8DFE5"/>
<text x="286" y="211" font-family="Arial" font-size="17" font-weight="normal" fill="#172536">0</text>
<rect x="536" y="184" width="260" height="52" fill="white" stroke="#D8DFE5"/>
<text x="546" y="211" font-family="Arial" font-size="17" font-weight="normal" fill="#172536">0</text>
<rect x="796" y="184" width="260" height="52" fill="white" stroke="#D8DFE5"/>
<text x="806" y="211" font-family="Arial" font-size="17" font-weight="normal" fill="#172536">0</text>
<rect x="16" y="236" width="260" height="52" fill="#F6F8FA" stroke="#D8DFE5"/>
<text x="26" y="263" font-family="Arial" font-size="17" font-weight="normal" fill="#172536">Unmatched ProductKey</text>
<rect x="276" y="236" width="260" height="52" fill="#F6F8FA" stroke="#D8DFE5"/>
<text x="286" y="263" font-family="Arial" font-size="17" font-weight="normal" fill="#172536">0</text>
<rect x="536" y="236" width="260" height="52" fill="#F6F8FA" stroke="#D8DFE5"/>
<text x="546" y="263" font-family="Arial" font-size="17" font-weight="normal" fill="#172536">0</text>
<rect x="796" y="236" width="260" height="52" fill="#F6F8FA" stroke="#D8DFE5"/>
<text x="806" y="263" font-family="Arial" font-size="17" font-weight="normal" fill="#172536">0</text>
<rect x="16" y="288" width="260" height="52" fill="white" stroke="#D8DFE5"/>
<text x="26" y="315" font-family="Arial" font-size="17" font-weight="normal" fill="#172536">Duplicate CustomerKey</text>
<rect x="276" y="288" width="260" height="52" fill="white" stroke="#D8DFE5"/>
<text x="286" y="315" font-family="Arial" font-size="17" font-weight="normal" fill="#172536">0</text>
<rect x="536" y="288" width="260" height="52" fill="white" stroke="#D8DFE5"/>
<text x="546" y="315" font-family="Arial" font-size="17" font-weight="normal" fill="#172536">0</text>
<rect x="796" y="288" width="260" height="52" fill="white" stroke="#D8DFE5"/>
<text x="806" y="315" font-family="Arial" font-size="17" font-weight="normal" fill="#172536">0</text>
<rect x="16" y="340" width="260" height="52" fill="#F6F8FA" stroke="#D8DFE5"/>
<text x="26" y="367" font-family="Arial" font-size="17" font-weight="normal" fill="#172536">Unmatched CustomerKey</text>
<rect x="276" y="340" width="260" height="52" fill="#F6F8FA" stroke="#D8DFE5"/>
<text x="286" y="367" font-family="Arial" font-size="17" font-weight="normal" fill="#172536">0</text>
<rect x="536" y="340" width="260" height="52" fill="#F6F8FA" stroke="#D8DFE5"/>
<text x="546" y="367" font-family="Arial" font-size="17" font-weight="normal" fill="#172536">0</text>
<rect x="796" y="340" width="260" height="52" fill="#F6F8FA" stroke="#D8DFE5"/>
<text x="806" y="367" font-family="Arial" font-size="17" font-weight="normal" fill="#172536">0</text>
</svg>