<svg xmlns="http://www.w3.org/2000/svg" width="1592" height="398" viewBox="0 0 1592 398">
<rect width="100%" height="100%" fill="white"/><rect width="100%" height="54" fill="#51498D"/>
<text x="16" y="35" font-family="Arial" font-size="22" fill="white">Trace 3</text>
<rect x="16" y="68" width="260" height="52" fill="#E9EEF3" stroke="#D8DFE5"/>
<text x="26" y="95" font-family="Arial" font-size="17" font-weight="bold" fill="#172536">VP</text>
<rect x="276" y="68" width="260" height="52" fill="#E9EEF3" stroke="#D8DFE5"/>
<text x="286" y="95" font-family="Arial" font-size="17" font-weight="bold" fill="#172536">Actual</text>
<rect x="536" y="68" width="260" height="52" fill="#E9EEF3" stroke="#D8DFE5"/>
<text x="546" y="95" font-family="Arial" font-size="17" font-weight="bold" fill="#172536">Plan</text>
<rect x="796" y="68" width="260" height="52" fill="#E9EEF3" stroke="#D8DFE5"/>
<text x="806" y="95" font-family="Arial" font-size="17" font-weight="bold" fill="#172536">LE1</text>
<rect x="1056" y="68" width="260" height="52" fill="#E9EEF3" stroke="#D8DFE5"/>
<text x="1066" y="95" font-family="Arial" font-size="17" font-weight="bold" fill="#172536">LE2</text>
<rect x="1316" y="68" width="260" height="52" fill="#E9EEF3" stroke="#D8DFE5"/>
<text x="1326" y="95" font-family="Arial" font-size="17" font-weight="bold" fill="#172536">LE3</text>
<rect x="16" y="120" width="260" height="52" fill="#F6F8FA" stroke="#D8DFE5"/>
<text x="26" y="147" font-family="Arial" font-size="17" font-weight="normal" fill="#172536">Nora Jones</text>
<rect x="276" y="120" width="260" height="52" fill="#F6F8FA" stroke="#D8DFE5"/>
<text x="286" y="147" font-family="Arial" font-size="17" font-weight="normal" fill="#172536">1003253.919</text>
<rect x="536" y="120" width="260" height="52" fill="#F6F8FA" stroke="#D8DFE5"/>
<text x="546" y="147" font-family="Arial" font-size="17" font-weight="normal" fill="#172536">190200.0</text>
<rect x="796" y="120" width="260" height="52" fill="#F6F8FA" stroke="#D8DFE5"/>
<text x="806" y="147" font-family="Arial" font-size="17" font-weight="normal" fill="#172536">208336.36365</text>
<rect x="1056" y="120" width="260" height="52" fill="#F6F8FA" stroke="#D8DFE5"/>
<text x="1066" y="147" font-family="Arial" font-size="17" font-weight="normal" fill="#172536">-549070.2</text>
<rect x="1316" y="120" width="260" height="52" fill="#F6F8FA" stroke="#D8DFE5"/>
<text x="1326" y="147" font-family="Arial" font-size="17" font-weight="normal" fill="#172536">-1368268.8</text>
<rect x="16" y="172" width="260" height="52" fill="white" stroke="#D8DFE5"/>
<text x="26" y="199" font-family="Arial" font-size="17" font-weight="normal" fill="#172536">Nora Jones</text>
<rect x="276" y="172" width="260" height="52" fill="white" stroke="#D8DFE5"/>
<text x="286" y="199" font-family="Arial" font-size="17" font-weight="normal" fill="#172536">718434.507</text>
<rect x="536" y="172" width="260" height="52" fill="white" stroke="#D8DFE5"/>
<text x="546" y="199" font-family="Arial" font-size="17" font-weight="normal" fill="#172536">190200.0</text>
<rect x="796" y="172" width="260" height="52" fill="white" stroke="#D8DFE5"/>
<text x="806" y="199" font-family="Arial" font-size="17" font-weight="normal" fill="#172536">208336.36365</text>
<rect x="1056" y="172" width="260" height="52" fill="white" stroke="#D8DFE5"/>
<text x="1066" y="199" font-family="Arial" font-size="17" font-weight="normal" fill="#172536">718434.507</text>
<rect x="1316" y="172" width="260" height="52" fill="white" stroke="#D8DFE5"/>
<text x="1326" y="199" font-family="Arial" font-size="17" font-weight="normal" fill="#172536">718434.507</text>
<rect x="16" y="224" width="260" height="52" fill="#F6F8FA" stroke="#D8DFE5"/>
<text x="26" y="251" font-family="Arial" font-size="17" font-weight="normal" fill="#172536">Nora Jones</text>
<rect x="276" y="224" width="260" height="52" fill="#F6F8FA" stroke="#D8DFE5"/>
<text x="286" y="251" font-family="Arial" font-size="17" font-weight="normal" fill="#172536">504909.333</text>
<rect x="536" y="224" width="260" height="52" fill="#F6F8FA" stroke="#D8DFE5"/>
<text x="546" y="251" font-family="Arial" font-size="17" font-weight="normal" fill="#172536">190200.0</text>
<rect x="796" y="224" width="260" height="52" fill="#F6F8FA" stroke="#D8DFE5"/>
<text x="806" y="251" font-family="Arial" font-size="17" font-weight="normal" fill="#172536">208336.36365</text>
<rect x="1056" y="224" width="260" height="52" fill="#F6F8FA" stroke="#D8DFE5"/>
<text x="1066" y="251" font-family="Arial" font-size="17" font-weight="normal" fill="#172536">-190014.9</text>
<rect x="1316" y="224" width="260" height="52" fill="#F6F8FA" stroke="#D8DFE5"/>
<text x="1326" y="251" font-family="Arial" font-size="17" font-weight="normal" fill="#172536">208336.36365</text>
<rect x="16" y="276" width="260" height="52" fill="white" stroke="#D8DFE5"/>
<text x="26" y="303" font-family="Arial" font-size="17" font-weight="normal" fill="#172536">Nora Jones</text>
<rect x="276" y="276" width="260" height="52" fill="white" stroke="#D8DFE5"/>
<text x="286" y="303" font-family="Arial" font-size="17" font-weight="normal" fill="#172536">496712.361</text>
<rect x="536" y="276" width="260" height="52" fill="white" stroke="#D8DFE5"/>
<text x="546" y="303" font-family="Arial" font-size="17" font-weight="normal" fill="#172536">190200.0</text>
<rect x="796" y="276" width="260" height="52" fill="white" stroke="#D8DFE5"/>
<text x="806" y="303" font-family="Arial" font-size="17" font-weight="normal" fill="#172536">208336.36365</text>
<rect x="1056" y="276" width="260" height="52" fill="white" stroke="#D8DFE5"/>
<text x="1066" y="303" font-family="Arial" font-size="17" font-weight="normal" fill="#172536">496712.361</text>
<rect x="1316" y="276" width="260" height="52" fill="white" stroke="#D8DFE5"/>
<text x="1326" y="303" font-family="Arial" font-size="17" font-weight="normal" fill="#172536">208336.36365</text>
<rect x="16" y="328" width="260" height="52" fill="#F6F8FA" stroke="#D8DFE5"/>
<text x="26" y="355" font-family="Arial" font-size="17" font-weight="normal" fill="#172536">Nora Jones</text>
<rect x="276" y="328" width="260" height="52" fill="#F6F8FA" stroke="#D8DFE5"/>
<text x="286" y="355" font-family="Arial" font-size="17" font-weight="normal" fill="#172536">488449.128</text>
<rect x="536" y="328" width="260" height="52" fill="#F6F8FA" stroke="#D8DFE5"/>
<text x="546" y="355" font-family="Arial" font-size="17" font-weight="normal" fill="#172536">190200.0</text>
<rect x="796" y="328" width="260" height="52" fill="#F6F8FA" stroke="#D8DFE5"/>
<text x="806" y="355" font-family="Arial" font-size="17" font-weight="normal" fill="#172536">208336.36365</text>
<rect x="1056" y="328" width="260" height="52" fill="#F6F8FA" stroke="#D8DFE5"/>
<text x="1066" y="355" font-family="Arial" font-size="17" font-weight="normal" fill="#172536">488449.128</text>
<rect x="1316" y="328" width="260" height="52" fill="#F6F8FA" stroke="#D8DFE5"/>
<text x="1326" y="355" font-family="Arial" font-size="17" font-weight="normal" fill="#172536">110967.0</text>
</svg>